<?xml version="1.0" encoding="utf-8"?>
<!-- Generator: Adobe Illustrator 25.0.0, SVG Export Plug-In . SVG Version: 6.00 Build 0)  -->
<svg version="1.1" id="Capa_1" xmlns="http://www.w3.org/2000/svg" xmlns:xlink="http://www.w3.org/1999/xlink" x="0px" y="0px"
	 viewBox="0 0 1000 1000" style="enable-background:new 0 0 1000 1000;" xml:space="preserve">
<style type="text/css">
	.st0{fill:#FFCD00;}
</style>
<rect class="st0" width="1000" height="1000"/>
<g>
	<g>
		<g>
			<g>
				<g>
					<defs>
						<path id="SVGID_1_" d="M456.53,654.28c0-23.91,19.47-43.28,43.48-43.28c24.01,0,43.47,19.38,43.47,43.28
							s-19.46,43.28-43.47,43.28C475.99,697.57,456.53,678.19,456.53,654.28z M199.11,524.43h126.97V654.3h0.01
							c0,33.88,9.91,65.37,26.8,92.06C271.26,701.38,212.89,620.11,199.11,524.43z M801.31,524.42
							C780.51,671.29,653.35,784.16,500,784.16c-72.02,0-130.44-58.17-130.44-129.88c0-71.71,58.42-129.84,130.44-129.84
							c72.02,0,130.42,58.13,130.42,129.59c-14.78,11.05-30.92,20.39-48.27,27.45c2.86-8.6,4.8-17.63,4.8-27.18
							c0-48.94-38.93-86.52-86.95-86.52c-48.02,0-86.89,38.7-86.89,86.51c0,47.82,38.87,86.58,86.88,86.58
							c129.29,0,236.68-93.58,257.31-216.44H801.31z M717.39,481.13c0,51.22-17.9,98.24-47.79,135.27
							c-17.37-77.39-86.64-135.26-169.6-135.26c-52.01,0-98.57,22.86-130.44,58.9v-58.9l-217.39-0.01
							c0,191.28,155.73,346.34,347.83,346.34c192.11,0,347.84-155.06,347.84-346.34H717.39z M369.56,448.74h260.87v-43.29H369.56
							V448.74z M565.2,255.03c-12.83-7.43-27.54-12-43.46-12c-7.68,0-15.1,1.08-22.21,2.94c-6.84-1.72-13.88-2.94-21.27-2.94
							c-15.82,0-30.46,4.52-43.24,11.88c-12.85-7.48-27.76-11.88-43.72-11.88c-48.02,0-86.96,38.77-86.96,86.58v43.29h43.48v-43.29
							c0-23.91,19.47-43.29,43.48-43.29c3.88,0,7.59,0.68,11.18,1.63c-6.9,12.41-11.18,26.47-11.18,41.66v43.29h43.48v-43.29
							c0-23.91,19.47-43.29,43.48-43.29v86.58h43.48v-86.58c24.01,0,43.48,19.38,43.48,43.29v43.29h43.48v-43.29
							c0-15.2-4.28-29.25-11.18-41.67c3.58-0.95,7.29-1.61,11.18-1.61c24.01,0,43.48,19.38,43.48,43.29v43.29h43.48v-43.29
							c0-47.81-38.94-86.58-86.96-86.58C592.77,243.03,578.03,247.59,565.2,255.03z M490.52,172.54v20.39h-20.48v18.89h20.48
							l0,20.39l18.97,0v-20.39h20.47v-18.89h-20.48v-20.39H490.52z"/>
					</defs>
					<use xlink:href="#SVGID_1_"  style="overflow:visible;fill-rule:evenodd;clip-rule:evenodd;fill:#002E6D;"/>
					<clipPath id="SVGID_2_">
						<use xlink:href="#SVGID_1_"  style="overflow:visible;"/>
					</clipPath>
				</g>
			</g>
		</g>
	</g>
</g>
</svg>
